<?xml version="1.0" encoding="utf-8"?>
<!-- Generator: Adobe Illustrator 25.4.1, SVG Export Plug-In . SVG Version: 6.00 Build 0)  -->
<svg version="1.1" id="Layer_1" xmlns="http://www.w3.org/2000/svg" xmlns:xlink="http://www.w3.org/1999/xlink" x="0px" y="0px"
	 viewBox="0 0 1920 1080" style="enable-background:new 0 0 1920 1080;" xml:space="preserve">
<style type="text/css">
	.st0{fill:#FFFFFF;}
	.st1{fill:#CCFBFF;}
</style>
<g>
	<path class="st0" d="M1929,1047.7c0,22.5-18.4,40.8-40.8,40.8H22.8c-22.5,0-40.8-18.4-40.8-40.8V-86.7c0-22.5,18.4-40.8,40.8-40.8
		h1865.3c22.5,0,40.8,18.4,40.8,40.8V1047.7z"/>
</g>
<path class="st1" d="M1929,1047.7V-86.7c0-22.5-18.4-40.8-40.8-40.8H1135C848.9-33.6,867.3,234.8,863.6,327.1
	c-5.8,143.2,16.6,407.7-118.1,488.8c-215.8,129.9-100.5,272.7-100.5,272.7h1243.2C1910.6,1088.5,1929,1070.2,1929,1047.7z"/>
<g>
	<path class="st0" d="M1657.7,235.1c-6.5,0-12.3,2.6-16.6,6.8c-5.1-24.1-26.5-42.3-52.1-42.3c-23.6,0-43.6,15.3-50.6,36.6
		c-6.8-11.7-19.4-19.6-33.9-19.6c-19.1,0-35,13.7-38.5,31.7c-3.9-7-11.4-11.8-19.9-11.8c-12.6,0-22.8,10.2-22.8,22.8
		c0,1.6,0.2,3.2,0.5,4.8h42.3h2.2h68.6h6h91.5h6.7h40c0.3-1.6,0.5-3.3,0.5-5C1681.6,245.8,1670.9,235.1,1657.7,235.1z"/>
	<path class="st0" d="M1058.4,389c-6.5,0-12.3,2.6-16.6,6.8c-5.1-24.1-26.5-42.3-52.1-42.3c-25.5,0-46.8,17.9-52,41.9
		c-5.3-8.1-14.4-13.4-24.8-13.4c-16.4,0-29.7,13.3-29.7,29.7c0,2.1,0.2,4.2,0.7,6.2h53.8h4.3h93.2h6.7h40.1c0.3-1.6,0.5-3.3,0.5-5
		C1082.3,399.7,1071.6,389,1058.4,389z"/>
	<path class="st0" d="M1805.5,411.4c-6,0-11.1,3.6-13.4,8.7c-2.1-9.8-10.7-17.1-21.1-17.1c-7.3,0-13.8,3.7-17.7,9.2
		c-2.9-26.7-25.5-47.5-53-47.5c-27,0-49.2,20.1-52.7,46.1c-3.7-3.9-9-6.4-14.8-6.4c-11.3,0-20.4,9.2-20.4,20.4
		c0,1.5,0.2,2.9,0.5,4.3h35.4h4.5h97.1h2.6h38.7h0.9h27.7c0.2-1,0.3-2,0.3-3.1C1820.2,418,1813.6,411.4,1805.5,411.4z"/>
	<path class="st0" d="M1210.5,241.8c-5.4,0-10,3.2-12.1,7.9c-1.9-8.8-9.7-15.5-19.1-15.5c-6.6,0-12.4,3.3-16,8.3
		c-2.6-24.1-23-42.9-47.8-42.9c-24.4,0-44.4,18.1-47.6,41.6c-3.4-3.5-8.1-5.8-13.4-5.8c-10.2,0-18.4,8.3-18.4,18.4
		c0,1.3,0.1,2.6,0.4,3.9h32h4.1h87.6h2.3h34.9h0.9h25c0.2-0.9,0.3-1.8,0.3-2.8C1223.7,247.7,1217.8,241.8,1210.5,241.8z"/>
</g>
<g>
	<path class="st0" d="M948.9,560.9c0.3-0.1,0.4-0.2,0.4-0.2h-0.8c-2.6-1.1-11.1-5.4-11.1-14.7v0c0,0,0,0,0,0v0
		c0,9.3-8.5,13.6-11.1,14.7h-0.8c0,0,0.2,0.1,0.4,0.2c-0.3,0.1-0.4,0.2-0.4,0.2h0.8c2.6,1.1,11.1,5.4,11.1,14.7v0c0,0,0,0,0,0
		c0,0,0,0,0,0v0c0-9.3,8.5-13.6,11.1-14.7h0.8C949.3,561.1,949.1,561,948.9,560.9z"/>
	<path class="st0" d="M1082.9,494.1c0.5-0.2,0.8-0.3,0.8-0.3h-1.5c-4.8-2-20.3-9.9-20.3-27v0c0,0,0,0,0,0v0c0,17-15.5,24.9-20.3,27
		h-1.5c0,0,0.3,0.1,0.8,0.3c-0.5,0.2-0.8,0.3-0.8,0.3h1.5c4.8,2,20.3,9.9,20.3,27v0.1c0,0,0,0,0,0c0,0,0,0,0,0v0
		c0-17,15.5-24.9,20.3-27h1.5C1083.6,494.4,1083.4,494.3,1082.9,494.1z"/>
	<path class="st0" d="M1736.1,656.1c0.3-0.1,0.4-0.2,0.4-0.2h-0.8c-2.6-1.1-11.1-5.4-11.1-14.7v0c0,0,0,0,0,0v0
		c0,9.3-8.5,13.6-11.1,14.7h-0.8c0,0,0.2,0.1,0.4,0.2c-0.3,0.1-0.4,0.2-0.4,0.2h0.8c2.6,1.1,11.1,5.4,11.1,14.7v0c0,0,0,0,0,0
		c0,0,0,0,0,0v0c0-9.3,8.5-13.6,11.1-14.7h0.8C1736.5,656.3,1736.4,656.2,1736.1,656.1z"/>
	<path class="st0" d="M1807.4,307.4c0.4-0.2,0.7-0.3,0.7-0.3h-1.3c-4.3-1.8-18-8.8-18.1-24v0c0,0,0,0,0,0v0
		c0,15.1-13.8,22.1-18.1,24h-1.3c0,0,0.3,0.1,0.7,0.3c-0.4,0.2-0.7,0.3-0.7,0.3h1.3c4.3,1.8,18,8.8,18.1,24v0c0,0,0,0,0,0
		c0,0,0,0,0,0v0c0-15.1,13.8-22.2,18.1-24h1.3C1808.1,307.7,1807.8,307.6,1807.4,307.4z"/>
	<path class="st0" d="M1335.9,175.5c0.6-0.2,1-0.4,1-0.4h-1.9c-6.4-2.7-27.1-13.2-27.1-35.9v-0.1c0,0,0,0,0,0v0
		c0,22.7-20.7,33.2-27.1,35.9h-1.9c0,0,0.4,0.1,1,0.4c-0.6,0.2-1,0.4-1,0.4h1.9c6.4,2.7,27.1,13.2,27.1,36v0.1c0,0,0,0,0,0
		c0,0,0,0,0,0v0c0.1-22.7,20.7-33.2,27.1-36h1.9C1336.9,175.9,1336.5,175.7,1335.9,175.5z"/>
	<path class="st0" d="M1652.1,480.5c0.3-0.1,0.4-0.2,0.4-0.2h-0.8c-2.6-1.1-11.1-5.4-11.1-14.7v0c0,0,0,0,0,0v0
		c0,9.3-8.5,13.6-11.1,14.7h-0.8c0,0,0.2,0.1,0.4,0.2c-0.3,0.1-0.4,0.2-0.4,0.2h0.8c2.6,1.1,11.1,5.4,11.1,14.7v0c0,0,0,0,0,0
		c0,0,0,0,0,0v0c0-9.3,8.5-13.6,11.1-14.7h0.8C1652.5,480.6,1652.3,480.6,1652.1,480.5z"/>
	<path class="st0" d="M967,267.1c0.3-0.1,0.4-0.2,0.4-0.2h-0.8c-2.6-1.1-11.1-5.4-11.1-14.7v0c0,0,0,0,0,0v0
		c0,9.3-8.5,13.6-11.1,14.7h-0.8c0,0,0.2,0.1,0.4,0.2c-0.3,0.1-0.4,0.2-0.4,0.2h0.8c2.6,1.1,11.1,5.4,11.1,14.7v0c0,0,0,0,0,0
		c0,0,0,0,0,0v0c0-9.3,8.5-13.6,11.1-14.7h0.8C967.4,267.3,967.2,267.2,967,267.1z"/>
	<path class="st0" d="M1727.8,175.5c0.3-0.1,0.4-0.2,0.4-0.2h-0.8c-2.6-1.1-11.1-5.4-11.1-14.7v0c0,0,0,0,0,0v0
		c0,9.3-8.5,13.6-11.1,14.7h-0.8c0,0,0.2,0.1,0.4,0.2c-0.3,0.1-0.4,0.2-0.4,0.2h0.8c2.6,1.1,11.1,5.4,11.1,14.7v0c0,0,0,0,0,0
		c0,0,0,0,0,0v0c0-9.3,8.5-13.6,11.1-14.7h0.8C1728.2,175.6,1728,175.6,1727.8,175.5z"/>
	<path class="st0" d="M1139,732.6c0.3-0.1,0.4-0.2,0.4-0.2h-0.8c-2.6-1.1-11.1-5.4-11.1-14.7v0c0,0,0,0,0,0v0
		c0,9.3-8.5,13.6-11.1,14.7h-0.8c0,0,0.2,0.1,0.4,0.2c-0.3,0.1-0.4,0.2-0.4,0.2h0.8c2.6,1.1,11.1,5.4,11.1,14.7v0c0,0,0,0,0,0
		c0,0,0,0,0,0v0c0-9.3,8.5-13.6,11.1-14.7h0.8C1139.5,732.8,1139.3,732.7,1139,732.6z"/>
	<path class="st0" d="M1527.1,732.7c0.3-0.1,0.4-0.2,0.4-0.2h-0.8c-2.6-1.1-11.1-5.4-11.1-14.7v0c0,0,0,0,0,0v0
		c0,9.3-8.5,13.6-11.1,14.7h-0.8c0,0,0.2,0.1,0.4,0.2c-0.3,0.1-0.4,0.2-0.4,0.2h0.8c2.6,1.1,11.1,5.4,11.1,14.7v0c0,0,0,0,0,0
		c0,0,0,0,0,0v0c0-9.3,8.5-13.6,11.1-14.7h0.8C1527.5,732.9,1527.4,732.8,1527.1,732.7z"/>
</g>
</svg>
